<svg width="4" height="18" viewBox="0 0 4 18" fill="none" xmlns="http://www.w3.org/2000/svg">
<g id="more - vertical">
<path id="Combo shape" fill-rule="evenodd" clip-rule="evenodd" d="M0.200012 1.80001C0.200012 0.805894 1.0059 0 2.00001 0C2.99412 0 3.80001 0.805894 3.80001 1.80001C3.80001 2.79413 2.99412 3.60003 2.00001 3.60003C1.0059 3.60003 0.200012 2.79413 0.200012 1.80001ZM0.200061 9.00001C0.200061 8.00589 1.00595 7.2 2.00006 7.2C2.99417 7.2 3.80006 8.00589 3.80006 9.00001C3.80006 9.99413 2.99417 10.8 2.00006 10.8C1.00595 10.8 0.200061 9.99413 0.200061 9.00001ZM2.00006 14.4C1.00595 14.4 0.200061 15.2059 0.200061 16.2C0.200061 17.1941 1.00595 18 2.00006 18C2.99417 18 3.80006 17.1941 3.80006 16.2C3.80006 15.2059 2.99417 14.4 2.00006 14.4Z" fill="#9296AA"/>
</g>
</svg>
