<svg width="24" height="24" viewBox="0 0 24 24" fill="none" xmlns="http://www.w3.org/2000/svg">
<g id="Country Flags/Asia/Japan">
<g id="US">
<rect id="Mask" y="3.42889" width="24" height="17.1429" rx="4" fill="white"/>
<mask id="mask0_13_2051" style="mask-type:luminance" maskUnits="userSpaceOnUse" x="0" y="3" width="24" height="18">
<rect id="Mask_2" y="3.42889" width="24" height="17.1429" rx="2" fill="white"/>
</mask>
<g mask="url(#mask0_13_2051)">
<path id="Rectangle 511" fill-rule="evenodd" clip-rule="evenodd" d="M24 3.42889H0V4.57175H24V3.42889ZM24 5.71405H0V6.85691H24V5.71405ZM0 8.00032H24V9.14318H0V8.00032ZM24 10.2855H0V11.4284H24V10.2855ZM0 12.5718H24V13.7146H0V12.5718ZM24 14.857H0V15.9999H24V14.857ZM0 17.1432H24V18.286H0V17.1432ZM24 19.4285H0V20.5714H24V19.4285Z" fill="#D02F44"/>
<rect id="Rectangle 511_2" y="3.42889" width="10.2857" height="8" fill="#46467F"/>
<g id="Oval 43" filter="url(#filter0_d_13_2051)">
<path fill-rule="evenodd" clip-rule="evenodd" d="M1.71401 5.71482C2.0296 5.71482 2.28544 5.45898 2.28544 5.14339C2.28544 4.8278 2.0296 4.57196 1.71401 4.57196C1.39842 4.57196 1.14258 4.8278 1.14258 5.14339C1.14258 5.45898 1.39842 5.71482 1.71401 5.71482ZM4.00006 5.71482C4.31566 5.71482 4.57149 5.45898 4.57149 5.14339C4.57149 4.8278 4.31566 4.57196 4.00006 4.57196C3.68447 4.57196 3.42864 4.8278 3.42864 5.14339C3.42864 5.45898 3.68447 5.71482 4.00006 5.71482ZM6.85755 5.14339C6.85755 5.45898 6.60171 5.71482 6.28612 5.71482C5.97053 5.71482 5.71469 5.45898 5.71469 5.14339C5.71469 4.8278 5.97053 4.57196 6.28612 4.57196C6.60171 4.57196 6.85755 4.8278 6.85755 5.14339ZM8.57038 5.71482C8.88597 5.71482 9.14181 5.45898 9.14181 5.14339C9.14181 4.8278 8.88597 4.57196 8.57038 4.57196C8.25479 4.57196 7.99895 4.8278 7.99895 5.14339C7.99895 5.45898 8.25479 5.71482 8.57038 5.71482ZM3.42801 6.28646C3.42801 6.60205 3.17218 6.85788 2.85658 6.85788C2.54099 6.85788 2.28516 6.60205 2.28516 6.28646C2.28516 5.97086 2.54099 5.71503 2.85658 5.71503C3.17218 5.71503 3.42801 5.97086 3.42801 6.28646ZM5.14272 6.8574C5.45831 6.8574 5.71415 6.60156 5.71415 6.28597C5.71415 5.97038 5.45831 5.71454 5.14272 5.71454C4.82713 5.71454 4.57129 5.97038 4.57129 6.28597C4.57129 6.60156 4.82713 6.8574 5.14272 6.8574ZM8.00028 6.28597C8.00028 6.60156 7.74444 6.8574 7.42885 6.8574C7.11326 6.8574 6.85742 6.60156 6.85742 6.28597C6.85742 5.97038 7.11326 5.71454 7.42885 5.71454C7.74444 5.71454 8.00028 5.97038 8.00028 6.28597ZM8.57035 7.99997C8.88595 7.99997 9.14178 7.74414 9.14178 7.42855C9.14178 7.11295 8.88595 6.85712 8.57035 6.85712C8.25476 6.85712 7.99893 7.11295 7.99893 7.42855C7.99893 7.74414 8.25476 7.99997 8.57035 7.99997ZM6.85751 7.42855C6.85751 7.74414 6.60167 7.99997 6.28608 7.99997C5.97049 7.99997 5.71465 7.74414 5.71465 7.42855C5.71465 7.11295 5.97049 6.85712 6.28608 6.85712C6.60167 6.85712 6.85751 7.11295 6.85751 7.42855ZM4.00004 7.99997C4.31563 7.99997 4.57147 7.74414 4.57147 7.42855C4.57147 7.11295 4.31563 6.85712 4.00004 6.85712C3.68445 6.85712 3.42861 7.11295 3.42861 7.42855C3.42861 7.74414 3.68445 7.99997 4.00004 7.99997ZM2.28544 7.42855C2.28544 7.74414 2.0296 7.99997 1.71401 7.99997C1.39842 7.99997 1.14258 7.74414 1.14258 7.42855C1.14258 7.11295 1.39842 6.85712 1.71401 6.85712C2.0296 6.85712 2.28544 7.11295 2.28544 7.42855ZM2.85658 9.14353C3.17218 9.14353 3.42801 8.88769 3.42801 8.5721C3.42801 8.25651 3.17218 8.00067 2.85658 8.00067C2.54099 8.00067 2.28516 8.25651 2.28516 8.5721C2.28516 8.88769 2.54099 9.14353 2.85658 9.14353ZM5.71512 8.5721C5.71512 8.88769 5.45929 9.14353 5.14369 9.14353C4.8281 9.14353 4.57227 8.88769 4.57227 8.5721C4.57227 8.25651 4.8281 8.00067 5.14369 8.00067C5.45929 8.00067 5.71512 8.25651 5.71512 8.5721ZM7.42885 9.14353C7.74444 9.14353 8.00028 8.88769 8.00028 8.5721C8.00028 8.25651 7.74444 8.00067 7.42885 8.00067C7.11326 8.00067 6.85742 8.25651 6.85742 8.5721C6.85742 8.88769 7.11326 9.14353 7.42885 9.14353ZM9.14181 9.71483C9.14181 10.0304 8.88597 10.2863 8.57038 10.2863C8.25479 10.2863 7.99895 10.0304 7.99895 9.71483C7.99895 9.39924 8.25479 9.1434 8.57038 9.1434C8.88597 9.1434 9.14181 9.39924 9.14181 9.71483ZM6.28612 10.2863C6.60171 10.2863 6.85755 10.0304 6.85755 9.71483C6.85755 9.39924 6.60171 9.1434 6.28612 9.1434C5.97053 9.1434 5.71469 9.39924 5.71469 9.71483C5.71469 10.0304 5.97053 10.2863 6.28612 10.2863ZM4.57149 9.71483C4.57149 10.0304 4.31566 10.2863 4.00006 10.2863C3.68447 10.2863 3.42864 10.0304 3.42864 9.71483C3.42864 9.39924 3.68447 9.1434 4.00006 9.1434C4.31566 9.1434 4.57149 9.39924 4.57149 9.71483ZM1.71401 10.2862C2.0296 10.2862 2.28544 10.0304 2.28544 9.71482C2.28544 9.39923 2.0296 9.14339 1.71401 9.14339C1.39842 9.14339 1.14258 9.39923 1.14258 9.71482C1.14258 10.0304 1.39842 10.2862 1.71401 10.2862Z" fill="url(#paint0_linear_13_2051)"/>
</g>
</g>
</g>
</g>
<defs>
<filter id="filter0_d_13_2051" x="1.14258" y="4.57196" width="7.99924" height="7.71429" filterUnits="userSpaceOnUse" color-interpolation-filters="sRGB">
<feFlood flood-opacity="0" result="BackgroundImageFix"/>
<feColorMatrix in="SourceAlpha" type="matrix" values="0 0 0 0 0 0 0 0 0 0 0 0 0 0 0 0 0 0 127 0" result="hardAlpha"/>
<feOffset dy="2"/>
<feColorMatrix type="matrix" values="0 0 0 0 0 0 0 0 0 0 0 0 0 0 0 0 0 0 0.06 0"/>
<feBlend mode="normal" in2="BackgroundImageFix" result="effect1_dropShadow_13_2051"/>
<feBlend mode="normal" in="SourceGraphic" in2="effect1_dropShadow_13_2051" result="shape"/>
</filter>
<linearGradient id="paint0_linear_13_2051" x1="1.14258" y1="4.57196" x2="1.14258" y2="10.2863" gradientUnits="userSpaceOnUse">
<stop stop-color="white"/>
<stop offset="1" stop-color="#F0F0F0"/>
</linearGradient>
</defs>
</svg>
